Coordinates
version=1
nRows=7
nColumns=40
inDegrees=yes

Units are S.I. units (second, meters, Newtons, ...)
If the header above contains a line with 'inDegrees', this indicates whether rotational values are in degrees (yes) or radians (no).

endheader
time	pelvis_tilt	pelvis_list	pelvis_rotation	pelvis_tx	pelvis_ty	pelvis_tz	hip_flexion_r	hip_adduction_r	hip_rotation_r	knee_angle_r	knee_angle_r_beta	ankle_angle_r	subtalar_angle_r	mtp_angle_r	hip_flexion_l	hip_adduction_l	hip_rotation_l	knee_angle_l	knee_angle_l_beta	ankle_angle_l	subtalar_angle_l	mtp_angle_l	lumbar_extension	lumbar_bending	lumbar_rotation	arm_flex_r	arm_add_r	arm_rot_r	elbow_flex_r	pro_sup_r	wrist_flex_r	wrist_dev_r	arm_flex_l	arm_add_l	arm_rot_l	elbow_flex_l	pro_sup_l	wrist_flex_l	wrist_dev_l
      3.15000000	      6.68640948	      4.35487317	      0.61774104	     -0.41541815	      0.85647914	     -0.74280078	     39.31103664	     -4.37046068	     -7.14950771	     85.22575473	      1.48747003	     25.89203024	      0.00000000	      0.00000000	     56.63206874	     -2.79410950	     -4.65956635	     11.03335134	      0.19256831	    -12.03488037	      0.00000000	      0.00000000	    -25.04111422	      2.18941260	      4.40095894	     89.95983480	    -18.35838804	     17.01023869	     43.91309150	     75.97204768	      0.00000000	      0.00000000	     89.95580760	    -11.62462570	     20.17594103	     41.73018676	     76.53010766	      0.00000000	      0.00000000
      3.15500000	      6.64256051	      4.33989016	      0.53135098	     -0.41557476	      0.85606101	     -0.74267501	     39.41816447	     -4.33917981	     -7.13264356	     85.28936193	      1.48858018	     25.79962638	      0.00000000	      0.00000000	     56.64784392	     -2.90037349	     -4.81828891	     11.01079836	      0.19217468	    -11.97338742	      0.00000000	      0.00000000	    -25.02252281	      2.18881132	      4.46666166	     89.95992223	    -18.29737257	     16.40385643	     43.82925511	     80.64408313	      0.00000000	      0.00000000	     89.95587109	    -11.65425174	     19.53894372	     41.62672406	     81.72057889	      0.00000000	      0.00000000
      3.16000000	      6.62437521	      4.28831839	      0.49520111	     -0.41581810	      0.85558771	     -0.74259570	     39.48343639	     -4.31060812	     -7.19285061	     85.34017717	      1.48946708	     25.87605576	      0.00000000	      0.00000000	     56.68539397	     -2.98761572	     -4.86947293	     11.06916942	      0.19319345	    -11.81866451	      0.00000000	      0.00000000	    -25.03302487	      2.23649359	      4.54944763	     89.95998248	    -18.31834237	     16.95175031	     43.95033445	     75.77627230	      0.00000000	      0.00000000	     89.95597705	    -11.62658567	     20.02698571	     41.70907149	     76.76767086	      0.00000000	      0.00000000
      3.16500000	      6.59197654	      4.18793345	      0.44879750	     -0.41597198	      0.85516946	     -0.74248640	     39.55816808	     -4.23960021	     -7.28542216	     85.38378194	      1.49022812	     25.78087154	      0.00000000	      0.00000000	     56.70902218	     -3.11691478	     -4.91113159	     11.06792503	      0.19317173	    -11.84638507	      0.00000000	      0.00000000	    -25.02915323	      2.33899923	      4.59694629	     89.96011208	    -18.24360784	     16.35713714	     43.87251349	     80.54036200	      0.00000000	      0.00000000	     89.95600932	    -11.69001868	     19.41342218	     41.66034394	     81.74040335	      0.00000000	      0.00000000
      3.17000000	      6.56679873	      4.12015721	      0.37662606	     -0.41615593	      0.85463022	     -0.74238784	     39.63884185	     -4.17306176	     -7.32817465	     85.44896737	      1.49136582	     25.89004024	      0.00000000	      0.00000000	     56.75144050	     -3.24743592	     -4.94471448	     11.13531761	      0.19434796	    -11.69993560	      0.00000000	      0.00000000	    -25.03144394	      2.38866851	      4.69861469	     89.96014522	    -18.26349316	     16.97440031	     44.03782463	     74.98113539	      0.00000000	      0.00000000	     89.95612272	    -11.69229386	     20.01276887	     41.80101458	     76.01672036	      0.00000000	      0.00000000
      3.17500000	      6.51676798	      4.08650611	      0.28424120	     -0.41632590	      0.85420783	     -0.74229706	     39.76090258	     -4.12461273	     -7.30691549	     85.52671117	      1.49272271	     25.71920722	      0.00000000	      0.00000000	     56.77769116	     -3.36770344	     -5.05756608	     11.13192791	      0.19428879	    -11.67823964	      0.00000000	      0.00000000	    -25.01119235	      2.40596331	      4.76046564	     89.96031985	    -18.19517146	     16.29600100	     43.91714520	     80.49164699	      0.00000000	      0.00000000	     89.95608548	    -11.75355022	     19.33489539	     41.70908385	     81.73134331	      0.00000000	      0.00000000
      3.18000000	      6.49169310	      4.04046473	      0.22347463	     -0.41654597	      0.85377997	     -0.74222378	     39.84219945	     -4.07786909	     -7.32062100	     85.57885653	      1.49363282	     25.72772346	      0.00000000	      0.00000000	     56.80977752	     -3.46767078	     -5.12946817	     11.17445146	      0.19503097	    -11.63083537	      0.00000000	      0.00000000	    -25.02038679	      2.43889746	      4.82679209	     89.96048410	    -18.18441932	     16.30405093	     43.96285768	     80.43979181	      0.00000000	      0.00000000	     89.95617583	    -11.76089737	     19.28446672	     41.72647583	     81.64639301	      0.00000000	      0.00000000
